# Blender v2.82 (sub 7) OBJ File: ''
# www.blender.org
mtllib FluidBefore.mtl
o fluid-before\Solid
v 6.062178 0.310999 -0.246311
v 6.062178 0.137232 -0.231108
v 0.000000 -1.825420 -3.132632
v 0.000000 -2.187922 -2.860230
v 6.062178 0.064688 -0.180312
v 0.000000 -2.514946 -2.546119
v 6.062178 0.036116 -0.146262
v 6.062178 -0.001311 -0.065999
v 6.062178 -0.009030 0.022225
v 6.062178 0.064688 0.180312
v 6.062178 0.098738 0.208884
v 6.062178 0.137232 0.231109
v 6.062178 0.179001 0.246311
v 6.062178 0.352768 0.231109
v 0.000000 1.922728 3.359353
v 6.062178 0.391262 0.208884
v 0.000000 2.315420 3.132632
v 0.000000 2.677922 2.860230
v 6.062178 0.425312 0.180312
v 0.000000 3.004946 2.546119
v 6.062178 0.453884 0.146262
v 6.062178 0.476108 0.107768
v 6.062178 0.499030 0.022225
v 6.062178 0.491311 -0.065999
v 6.062178 0.476109 -0.107768
v 0.000000 3.377632 -2.070421
v 6.062178 0.425312 -0.180312
v 6.062178 0.352768 -0.231108
v 6.062178 0.267225 0.254030
v 6.062178 0.222775 0.254030
v 6.062178 0.310999 0.246311
v 6.062178 0.036116 0.146262
v 6.062178 0.013891 0.107768
v 6.062178 0.491311 0.065999
v 6.062178 -0.001311 0.065999
v 6.062178 0.499030 -0.022225
v 6.062178 -0.009030 -0.022225
v 6.062178 0.013892 -0.107768
v 6.062178 0.453884 -0.146262
v 6.062178 0.391262 -0.208884
v 6.062178 0.098738 -0.208884
v 6.062178 0.179001 -0.246311
v 6.062178 0.267225 -0.254030
v 6.062178 0.222775 -0.254030
v -20.000000 0.320615 -3.754239
v -20.000000 -0.132460 -3.735980
v -20.000000 0.772587 -3.717752
v -20.000000 -0.580030 -3.663243
v -20.000000 1.216866 -3.627051
v -20.000000 2.056636 -3.289073
v -20.000000 -3.044073 -1.811636
v -20.000000 3.604353 -1.677728
v -20.000000 3.782088 -1.260570
v -20.000000 3.980980 -0.377459
v -20.000000 -3.509238 -0.075615
v -20.000000 -3.490980 0.377460
v -20.000000 3.962751 0.527587
v -20.000000 -3.292088 1.260570
v -20.000000 3.728461 1.401973
v -20.000000 -3.114353 1.677728
v -20.000000 -2.887632 2.070421
v -20.000000 3.291723 2.194881
v -20.000000 -2.615230 2.432922
v -20.000000 3.004946 2.546119
v -20.000000 2.677922 2.860230
v -20.000000 -1.949881 3.046724
v -20.000000 2.315420 3.132632
v -20.000000 1.922728 3.359353
v -20.000000 -1.156973 3.483460
v -20.000000 1.505570 3.537088
v -20.000000 -0.726866 3.627051
v -20.000000 1.070030 3.663243
v -20.000000 -0.282587 3.717752
v -20.000000 0.622460 3.735980
v -20.000000 -3.510000 -0.000001
v 0.000000 -3.509238 -0.075615
v -20.000000 -3.472752 -0.527587
v 0.000000 -3.472752 -0.527587
v -20.000000 -3.382051 -0.971866
v 0.000000 -3.382051 -0.971866
v -20.000000 -3.238461 -1.401973
v 0.000000 -3.238461 -1.401973
v 0.000000 -3.044073 -1.811636
v -20.000000 -2.801723 -2.194881
v 0.000000 -2.801723 -2.194881
v -20.000000 -2.514946 -2.546119
v -20.000000 -2.187922 -2.860230
v -20.000000 -1.825420 -3.132632
v -20.000000 -1.432728 -3.359353
v 0.000000 -1.432728 -3.359353
v -20.000000 -1.015570 -3.537088
v 0.000000 -1.015570 -3.537088
v 0.000000 -0.580030 -3.663243
v 0.000000 -0.132460 -3.735980
v 0.000000 0.320615 -3.754239
v 0.000000 0.772587 -3.717752
v 0.000000 1.216866 -3.627051
v -20.000000 1.646973 -3.483460
v 0.000000 1.646973 -3.483460
v 0.000000 2.056636 -3.289073
v -20.000000 2.439881 -3.046723
v 0.000000 2.439881 -3.046723
v -20.000000 2.791120 -2.759946
v 0.000000 2.791120 -2.759946
v -20.000000 3.105230 -2.432922
v 0.000000 3.105230 -2.432922
v -20.000000 3.377632 -2.070421
v 0.000000 3.604353 -1.677728
v 0.000000 3.782088 -1.260570
v -20.000000 3.908243 -0.825030
v 0.000000 3.908243 -0.825030
v 0.000000 3.980980 -0.377459
v -20.000000 3.999238 0.075615
v 0.000000 3.999238 0.075615
v 0.000000 3.962751 0.527587
v -20.000000 3.872051 0.971866
v 0.000000 3.872051 0.971866
v 0.000000 3.728461 1.401973
v -20.000000 3.534073 1.811636
v 0.000000 3.534073 1.811636
v 0.000000 3.291723 2.194881
v 0.000000 1.505570 3.537088
v 0.000000 1.070030 3.663243
v 0.000000 0.622460 3.735980
v -20.000000 0.169385 3.754239
v 0.000000 0.169385 3.754239
v 0.000000 -0.282587 3.717752
v 0.000000 -0.726866 3.627051
v 0.000000 -1.156973 3.483460
v -20.000000 -1.566636 3.289073
v 0.000000 -1.566636 3.289073
v 0.000000 -1.949881 3.046724
v -20.000000 -2.301120 2.759946
v 0.000000 -2.301120 2.759946
v 0.000000 -2.615230 2.432922
v 0.000000 -2.887632 2.070421
v 0.000000 -3.114353 1.677728
v 0.000000 -3.292088 1.260570
v -20.000000 -3.418243 0.825030
v 0.000000 -3.418243 0.825030
v 0.000000 -3.490980 0.377460
vt -0.003594 -0.003500
vt -0.003351 -0.003500
vt -0.003324 0.003500
vt -0.003109 -0.003500
vt -0.002974 0.003500
vt -0.002867 -0.003500
vt -0.002625 0.003500
vt -0.002625 -0.003500
vt -0.002382 -0.003500
vt -0.003674 0.003500
vt -0.003836 -0.003500
vt -0.004024 0.003500
vt -0.004078 -0.003500
vt -0.004374 0.003500
vt -0.004320 -0.003500
vt -0.004563 -0.003500
vt -0.004724 0.003500
vt -0.004805 -0.003500
vt -0.005074 0.003500
vt -0.005047 -0.003500
vt -0.005289 -0.003500
vt -0.005424 0.003500
vt -0.005532 -0.003500
vt -0.005774 0.003500
vt -0.005774 -0.003500
vt -0.006016 -0.003500
vt -0.006124 0.003500
vt -0.006259 -0.003500
vt 0.006339 -0.003500
vt 0.006474 0.003500
vt 0.006124 0.003500
vt 0.006097 -0.003500
vt 0.005855 -0.003500
vt 0.005774 0.003500
vt 0.005612 -0.003500
vt 0.005424 0.003500
vt 0.005370 -0.003500
vt 0.005074 0.003500
vt 0.005128 -0.003500
vt 0.004886 -0.003500
vt 0.004724 0.003500
vt 0.004643 -0.003500
vt 0.004374 0.003500
vt 0.004401 -0.003500
vt 0.004159 -0.003500
vt 0.004024 0.003500
vt 0.003917 -0.003500
vt 0.003674 0.003500
vt 0.003674 -0.003500
vt 0.003432 -0.003500
vt 0.003324 0.003500
vt 0.003190 -0.003500
vt 0.002974 0.003500
vt 0.002948 -0.003500
vt 0.002705 -0.003500
vt 0.002625 0.003500
vt 0.002463 -0.003500
vt 0.002275 0.003500
vt 0.002221 -0.003500
vt 0.001925 0.003500
vt 0.001978 -0.003500
vt 0.001736 -0.003500
vt 0.001575 0.003500
vt 0.001494 -0.003500
vt 0.001225 0.003500
vt 0.001252 -0.003500
vt 0.001009 -0.003500
vt 0.000875 0.003500
vt 0.000767 -0.003500
vt 0.000525 0.003500
vt 0.000525 -0.003500
vt 0.000283 -0.003500
vt 0.000175 0.003500
vt 0.000040 -0.003500
vt -0.000175 0.003500
vt -0.000202 -0.003500
vt -0.000444 -0.003500
vt -0.000525 0.003500
vt -0.000686 -0.003500
vt -0.000875 0.003500
vt -0.000929 -0.003500
vt -0.001225 0.003500
vt -0.001171 -0.003500
vt -0.001413 -0.003500
vt -0.001575 0.003500
vt -0.001655 -0.003500
vt -0.001925 0.003500
vt -0.001898 -0.003500
vt -0.002140 -0.003500
vt -0.002275 0.003500
vt -0.000105 0.000254
vt -0.000150 0.000254
vt -0.000062 0.000246
vt -0.000193 0.000246
vt -0.000020 0.000231
vt -0.000235 0.000231
vt 0.000019 0.000209
vt -0.000274 0.000209
vt 0.000053 0.000180
vt -0.000308 0.000180
vt 0.000081 0.000146
vt -0.000336 0.000146
vt 0.000104 0.000108
vt -0.000359 0.000108
vt 0.000119 0.000066
vt -0.000374 0.000066
vt 0.000127 0.000022
vt -0.000382 0.000022
vt 0.000127 -0.000022
vt -0.000382 -0.000022
vt 0.000119 -0.000066
vt -0.000374 -0.000066
vt 0.000104 -0.000108
vt -0.000359 -0.000108
vt 0.000081 -0.000146
vt -0.000336 -0.000146
vt 0.000053 -0.000180
vt -0.000308 -0.000180
vt 0.000019 -0.000209
vt -0.000274 -0.000209
vt -0.000020 -0.000231
vt -0.000235 -0.000231
vt -0.000062 -0.000246
vt -0.000193 -0.000246
vt -0.000105 -0.000254
vt -0.000150 -0.000254
vt 0.001802 -0.003754
vt 0.002255 -0.003736
vt 0.001350 -0.003718
vt 0.002703 -0.003663
vt 0.000906 -0.003627
vt 0.003138 -0.003537
vt 0.000476 -0.003483
vt 0.003555 -0.003359
vt 0.000066 -0.003289
vt 0.003948 -0.003133
vt -0.000317 -0.003047
vt 0.004310 -0.002860
vt -0.000669 -0.002760
vt 0.004637 -0.002546
vt -0.000983 -0.002433
vt 0.004924 -0.002195
vt -0.001255 -0.002070
vt 0.005167 -0.001812
vt -0.001482 -0.001678
vt 0.005361 -0.001402
vt -0.001660 -0.001261
vt 0.005505 -0.000972
vt -0.001786 -0.000825
vt 0.005595 -0.000528
vt -0.001858 -0.000377
vt 0.005632 -0.000076
vt 0.005633 0.000000
vt -0.001877 0.000076
vt 0.005613 0.000377
vt -0.001840 0.000528
vt 0.005541 0.000825
vt -0.001750 0.000972
vt 0.005415 0.001261
vt -0.001606 0.001402
vt 0.005237 0.001678
vt -0.001412 0.001812
vt 0.005010 0.002070
vt -0.001169 0.002195
vt 0.004738 0.002433
vt -0.000882 0.002546
vt 0.004424 0.002760
vt -0.000555 0.002860
vt 0.004072 0.003047
vt -0.000193 0.003133
vt 0.003689 0.003289
vt 0.000200 0.003359
vt 0.003279 0.003483
vt 0.000617 0.003537
vt 0.002849 0.003627
vt 0.001052 0.003663
vt 0.002405 0.003718
vt 0.001500 0.003736
vt 0.001953 0.003754
vt -0.011797 -0.010000
vt -0.011721 -0.010000
vt -0.011721 0.010000
vt -0.011267 -0.010000
vt -0.011267 0.010000
vt -0.010814 -0.010000
vt -0.010814 0.010000
vt -0.010360 -0.010000
vt -0.010360 0.010000
vt -0.009906 -0.010000
vt -0.009906 0.010000
vt -0.009452 -0.010000
vt -0.009452 0.010000
vt -0.008999 -0.010000
vt -0.008999 0.010000
vt -0.008545 -0.010000
vt -0.008545 0.010000
vt -0.008091 -0.010000
vt -0.008091 0.010000
vt -0.007638 -0.010000
vt -0.007638 0.010000
vt -0.007184 -0.010000
vt -0.007184 0.010000
vt -0.006730 -0.010000
vt -0.006730 0.010000
vt -0.006276 -0.010000
vt -0.006276 0.010000
vt -0.005823 -0.010000
vt -0.005823 0.010000
vt -0.005369 -0.010000
vt -0.005369 0.010000
vt -0.004915 -0.010000
vt -0.004915 0.010000
vt -0.004462 -0.010000
vt -0.004462 0.010000
vt -0.004008 -0.010000
vt -0.004008 0.010000
vt -0.003554 -0.010000
vt -0.003554 0.010000
vt -0.003100 -0.010000
vt -0.003100 0.010000
vt -0.002647 -0.010000
vt -0.002647 0.010000
vt -0.002193 -0.010000
vt -0.002193 0.010000
vt -0.001739 -0.010000
vt -0.001739 0.010000
vt -0.001286 -0.010000
vt -0.001286 0.010000
vt -0.000832 -0.010000
vt -0.000832 0.010000
vt -0.000378 -0.010000
vt -0.000378 0.010000
vt 0.000076 -0.010000
vt 0.000076 0.010000
vt 0.000529 -0.010000
vt 0.000529 0.010000
vt 0.000983 -0.010000
vt 0.000983 0.010000
vt 0.001437 -0.010000
vt 0.001437 0.010000
vt 0.001890 -0.010000
vt 0.001890 0.010000
vt 0.002344 -0.010000
vt 0.002344 0.010000
vt 0.002798 -0.010000
vt 0.002798 0.010000
vt 0.003252 -0.010000
vt 0.003252 0.010000
vt 0.003705 -0.010000
vt 0.003705 0.010000
vt 0.004159 -0.010000
vt 0.004159 0.010000
vt 0.004613 -0.010000
vt 0.004613 0.010000
vt 0.005067 -0.010000
vt 0.005067 0.010000
vt 0.005520 -0.010000
vt 0.005520 0.010000
vt 0.005974 -0.010000
vt 0.005974 0.010000
vt 0.006428 -0.010000
vt 0.006428 0.010000
vt 0.006881 -0.010000
vt 0.006881 0.010000
vt 0.007335 -0.010000
vt 0.007335 0.010000
vt 0.007789 -0.010000
vt 0.007789 0.010000
vt 0.008243 -0.010000
vt 0.008243 0.010000
vt 0.008696 -0.010000
vt 0.008696 0.010000
vt 0.009150 -0.010000
vt 0.009150 0.010000
vt 0.009604 -0.010000
vt 0.009604 0.010000
vt 0.010057 -0.010000
vt 0.010057 0.010000
vt 0.010511 -0.010000
vt 0.010511 0.010000
vt 0.010965 -0.010000
vt 0.010965 0.010000
vt 0.011419 -0.010000
vt 0.011419 0.010000
vt 0.011797 -0.010000
vt 0.011872 0.010000
vn 0.2564 -0.2124 -0.9430
vn 0.2564 -0.0972 -0.9617
vn 0.8550 -0.0446 -0.5168
vn 0.2563 0.0195 -0.9664
vn 0.8539 0.0456 -0.5184
vn 0.2564 0.1358 -0.9570
vn 0.8539 0.1348 -0.5027
vn 0.2564 0.2502 -0.9336
vn 0.2564 0.3609 -0.8967
vn 0.8544 -0.1337 -0.5022
vn 0.2563 -0.3245 -0.9105
vn 0.8545 -0.2191 -0.4711
vn 0.2564 -0.4319 -0.8647
vn 0.8544 -0.2973 -0.4262
vn 0.2564 -0.5329 -0.8064
vn 0.2563 -0.6263 -0.7363
vn 0.8545 -0.3669 -0.3678
vn 0.2564 -0.7105 -0.6554
vn 0.8545 -0.4249 -0.2988
vn 0.2564 -0.7843 -0.5650
vn 0.2563 -0.8466 -0.4663
vn 0.8545 -0.4705 -0.2203
vn 0.2564 -0.8967 -0.3609
vn 0.8545 -0.5015 -0.1353
vn 0.2564 -0.9336 -0.2502
vn 0.2564 -0.9570 -0.1358
vn 0.8301 -0.5553 -0.0501
vn 0.2568 -0.9628 -0.0835
vn 0.8546 -0.5175 0.0446
vn 0.2564 -0.9617 0.0972
vn 0.2564 -0.9430 0.2124
vn 0.8544 -0.5022 0.1336
vn 0.2563 -0.9105 0.3245
vn 0.8545 -0.4711 0.2190
vn 0.2564 -0.8647 0.4319
vn 0.8544 -0.4263 0.2971
vn 0.2564 -0.8064 0.5329
vn 0.2563 -0.7363 0.6263
vn 0.8545 -0.3679 0.3668
vn 0.2564 -0.6554 0.7105
vn 0.8545 -0.2988 0.4250
vn 0.2564 -0.5650 0.7843
vn 0.2563 -0.4663 0.8466
vn 0.8545 -0.2203 0.4705
vn 0.2564 -0.3609 0.8967
vn 0.8545 -0.1353 0.5015
vn 0.2564 -0.2502 0.9336
vn 0.2564 -0.1358 0.9570
vn 0.8546 -0.0462 0.5173
vn 0.2563 -0.0195 0.9664
vn 0.8550 0.0448 0.5167
vn 0.2564 0.0972 0.9617
vn 0.2564 0.2124 0.9430
vn 0.8544 0.1336 0.5022
vn 0.2563 0.3245 0.9105
vn 0.8545 0.2190 0.4711
vn 0.2564 0.4319 0.8647
vn 0.8544 0.2973 0.4262
vn 0.2564 0.5329 0.8064
vn 0.2563 0.6263 0.7363
vn 0.8545 0.3669 0.3678
vn 0.2564 0.7105 0.6554
vn 0.8545 0.4249 0.2988
vn 0.2564 0.7843 0.5650
vn 0.2563 0.8466 0.4663
vn 0.8545 0.4705 0.2203
vn 0.2564 0.8967 0.3609
vn 0.8545 0.5014 0.1354
vn 0.2564 0.9336 0.2502
vn 0.2564 0.9570 0.1358
vn 0.8544 0.5175 0.0461
vn 0.2563 0.9664 0.0195
vn 0.8546 0.5174 -0.0445
vn 0.2564 0.9617 -0.0972
vn 0.2564 0.9430 -0.2124
vn 0.8544 0.5022 -0.1336
vn 0.2563 0.9105 -0.3245
vn 0.8544 0.4711 -0.2191
vn 0.2564 0.8647 -0.4319
vn 0.8544 0.4262 -0.2972
vn 0.2564 0.8064 -0.5329
vn 0.2563 0.7363 -0.6263
vn 0.8545 0.3678 -0.3669
vn 0.2564 0.6554 -0.7105
vn 0.8545 0.2988 -0.4250
vn 0.2564 0.5650 -0.7843
vn 0.2563 0.4663 -0.8466
vn 0.8545 0.2203 -0.4705
vn -0.6938 0.0145 -0.7201
vn -0.6938 -0.0724 -0.7166
vn -0.6938 0.1012 -0.7131
vn -0.6938 -0.1582 -0.7026
vn -0.6938 0.1864 -0.6957
vn -0.6938 -0.2418 -0.6784
vn -0.6938 0.2689 -0.6681
vn -0.6938 -0.3218 -0.6443
vn -0.6938 0.3475 -0.6308
vn -0.6938 -0.3971 -0.6008
vn -0.6938 0.4210 -0.5844
vn -0.6938 -0.4666 -0.5486
vn -0.6938 0.4883 -0.5294
vn -0.6938 -0.5294 -0.4883
vn -0.6938 0.5486 -0.4666
vn -0.6938 -0.5844 -0.4210
vn -0.6938 0.6008 -0.3971
vn -0.6938 -0.6308 -0.3475
vn -0.6938 0.6443 -0.3218
vn -0.6938 -0.6681 -0.2689
vn -0.6938 0.6784 -0.2418
vn -0.6938 -0.6957 -0.1864
vn -0.6938 0.7026 -0.1582
vn -0.6938 -0.7131 -0.1012
vn -0.6938 0.7166 -0.0724
vn -0.6881 -0.7249 -0.0310
vn -0.7177 -0.6962 0.0130
vn -0.6938 0.7201 0.0145
vn -0.6972 -0.7128 0.0760
vn -0.6938 0.7131 0.1012
vn -0.6938 -0.7026 0.1582
vn -0.6938 0.6957 0.1864
vn -0.6938 -0.6784 0.2418
vn -0.6938 0.6681 0.2689
vn -0.6938 -0.6443 0.3218
vn -0.6938 0.6308 0.3475
vn -0.6938 -0.6008 0.3971
vn -0.6938 0.5844 0.4210
vn -0.6938 -0.5486 0.4666
vn -0.6938 0.5294 0.4883
vn -0.6938 -0.4883 0.5294
vn -0.6938 0.4666 0.5486
vn -0.6938 -0.4210 0.5844
vn -0.6938 0.3971 0.6008
vn -0.6938 -0.3475 0.6308
vn -0.6938 0.3218 0.6443
vn -0.6938 -0.2689 0.6681
vn -0.6938 0.2418 0.6784
vn -0.6938 -0.1864 0.6957
vn -0.6938 0.1582 0.7026
vn -0.6938 -0.1012 0.7131
vn -0.6938 0.0724 0.7166
vn -0.6938 -0.0145 0.7201
usemtl c_0
s 1
f 93/1/1 94/2/2 44/3/3
f 44/3/3 94/2/2 95/4/4
f 44/3/3 95/4/4 43/5/5
f 43/5/5 95/4/4 96/6/6
f 43/5/5 96/6/6 1/7/7
f 1/7/7 96/6/6 97/8/8
f 1/7/7 97/8/8 99/9/9
f 44/3/3 42/10/10 93/1/1
f 93/1/1 42/10/10 92/11/11
f 42/10/10 2/12/12 92/11/11
f 92/11/11 2/12/12 90/13/13
f 2/12/12 41/14/14 90/13/13
f 90/13/13 41/14/14 3/15/15
f 3/15/15 41/14/14 4/16/16
f 4/16/16 41/14/14 5/17/17
f 4/16/16 5/17/17 6/18/18
f 6/18/18 5/17/17 7/19/19
f 6/18/18 7/19/19 85/20/20
f 85/20/20 7/19/19 83/21/21
f 7/19/19 38/22/22 83/21/21
f 83/21/21 38/22/22 82/23/23
f 38/22/22 8/24/24 82/23/23
f 82/23/23 8/24/24 80/25/25
f 80/25/25 8/24/24 78/26/26
f 78/26/26 8/24/24 37/27/27
f 78/26/26 37/27/27 76/28/28
f 76/29/28 37/30/27 9/31/29
f 76/29/28 9/31/29 141/32/30
f 141/32/30 9/31/29 140/33/31
f 9/31/29 35/34/32 140/33/31
f 140/33/31 35/34/32 138/35/33
f 35/34/32 33/36/34 138/35/33
f 138/35/33 33/36/34 137/37/35
f 33/36/34 32/38/36 137/37/35
f 137/37/35 32/38/36 136/39/37
f 136/39/37 32/38/36 135/40/38
f 135/40/38 32/38/36 10/41/39
f 135/40/38 10/41/39 134/42/40
f 134/42/40 10/41/39 11/43/41
f 134/42/40 11/43/41 132/44/42
f 132/44/42 11/43/41 131/45/43
f 11/43/41 12/46/44 131/45/43
f 131/45/43 12/46/44 129/47/45
f 12/46/44 13/48/46 129/47/45
f 129/47/45 13/48/46 128/49/47
f 128/49/47 13/48/46 127/50/48
f 127/50/48 13/48/46 30/51/49
f 127/50/48 30/51/49 126/52/50
f 126/52/50 30/51/49 29/53/51
f 126/52/50 29/53/51 124/54/52
f 124/54/52 29/53/51 123/55/53
f 29/53/51 31/56/54 123/55/53
f 123/55/53 31/56/54 122/57/55
f 31/56/54 14/58/56 122/57/55
f 122/57/55 14/58/56 15/59/57
f 14/58/56 16/60/58 15/59/57
f 15/59/57 16/60/58 17/61/59
f 17/61/59 16/60/58 18/62/60
f 18/62/60 16/60/58 19/63/61
f 18/62/60 19/63/61 20/64/62
f 20/64/62 19/63/61 21/65/63
f 20/64/62 21/65/63 121/66/64
f 121/66/64 21/65/63 120/67/65
f 21/65/63 22/68/66 120/67/65
f 120/67/65 22/68/66 118/69/67
f 22/68/66 34/70/68 118/69/67
f 118/69/67 34/70/68 117/71/69
f 117/71/69 34/70/68 115/72/70
f 115/72/70 34/70/68 23/73/71
f 115/72/70 23/73/71 114/74/72
f 114/74/72 23/73/71 36/75/73
f 114/74/72 36/75/73 112/76/74
f 112/76/74 36/75/73 111/77/75
f 36/75/73 24/78/76 111/77/75
f 111/77/75 24/78/76 109/79/77
f 24/78/76 25/80/78 109/79/77
f 109/79/77 25/80/78 108/81/79
f 25/80/78 39/82/80 108/81/79
f 108/81/79 39/82/80 26/83/81
f 26/83/81 39/82/80 106/84/82
f 106/84/82 39/82/80 27/85/83
f 106/84/82 27/85/83 104/86/84
f 104/86/84 27/85/83 40/87/85
f 104/86/84 40/87/85 102/88/86
f 102/88/86 40/87/85 100/89/87
f 40/87/85 28/90/88 100/89/87
f 100/89/87 28/90/88 99/9/9
f 28/90/88 1/7/7 99/9/9
f 29/91/51 30/92/49 31/93/54
f 31/93/54 30/92/49 13/94/46
f 31/93/54 13/94/46 14/95/56
f 14/95/56 13/94/46 12/96/44
f 14/95/56 12/96/44 16/97/58
f 16/97/58 12/96/44 11/98/41
f 16/97/58 11/98/41 19/99/61
f 19/99/61 11/98/41 10/100/39
f 19/99/61 10/100/39 21/101/63
f 21/101/63 10/100/39 32/102/36
f 21/101/63 32/102/36 22/103/66
f 22/103/66 32/102/36 33/104/34
f 22/103/66 33/104/34 34/105/68
f 34/105/68 33/104/34 35/106/32
f 34/105/68 35/106/32 23/107/71
f 23/107/71 35/106/32 9/108/29
f 23/107/71 9/108/29 36/109/73
f 36/109/73 9/108/29 37/110/27
f 36/109/73 37/110/27 24/111/76
f 24/111/76 37/110/27 8/112/24
f 24/111/76 8/112/24 25/113/78
f 25/113/78 8/112/24 38/114/22
f 25/113/78 38/114/22 39/115/80
f 39/115/80 38/114/22 7/116/19
f 39/115/80 7/116/19 27/117/83
f 27/117/83 7/116/19 5/118/17
f 27/117/83 5/118/17 40/119/85
f 40/119/85 5/118/17 41/120/14
f 40/119/85 41/120/14 28/121/88
f 28/121/88 41/120/14 2/122/12
f 28/121/88 2/122/12 1/123/7
f 1/123/7 2/122/12 42/124/10
f 1/123/7 42/124/10 43/125/5
f 43/125/5 42/124/10 44/126/3
f 45/127/89 46/128/90 47/129/91
f 47/129/91 46/128/90 48/130/92
f 47/129/91 48/130/92 49/131/93
f 49/131/93 48/130/92 91/132/94
f 49/131/93 91/132/94 98/133/95
f 98/133/95 91/132/94 89/134/96
f 98/133/95 89/134/96 50/135/97
f 50/135/97 89/134/96 88/136/98
f 50/135/97 88/136/98 101/137/99
f 101/137/99 88/136/98 87/138/100
f 101/137/99 87/138/100 103/139/101
f 103/139/101 87/138/100 86/140/102
f 103/139/101 86/140/102 105/141/103
f 105/141/103 86/140/102 84/142/104
f 105/141/103 84/142/104 107/143/105
f 107/143/105 84/142/104 51/144/106
f 107/143/105 51/144/106 52/145/107
f 52/145/107 51/144/106 81/146/108
f 52/145/107 81/146/108 53/147/109
f 53/147/109 81/146/108 79/148/110
f 53/147/109 79/148/110 110/149/111
f 110/149/111 79/148/110 77/150/112
f 110/149/111 77/150/112 54/151/113
f 54/151/113 77/150/112 55/152/114
f 54/151/113 55/152/114 75/153/115
f 54/151/113 75/153/115 113/154/116
f 113/154/116 75/153/115 56/155/117
f 113/154/116 56/155/117 57/156/118
f 57/156/118 56/155/117 139/157/119
f 57/156/118 139/157/119 116/158/120
f 116/158/120 139/157/119 58/159/121
f 116/158/120 58/159/121 59/160/122
f 59/160/122 58/159/121 60/161/123
f 59/160/122 60/161/123 119/162/124
f 119/162/124 60/161/123 61/163/125
f 119/162/124 61/163/125 62/164/126
f 62/164/126 61/163/125 63/165/127
f 62/164/126 63/165/127 64/166/128
f 64/166/128 63/165/127 133/167/129
f 64/166/128 133/167/129 65/168/130
f 65/168/130 133/167/129 66/169/131
f 65/168/130 66/169/131 67/170/132
f 67/170/132 66/169/131 130/171/133
f 67/170/132 130/171/133 68/172/134
f 68/172/134 130/171/133 69/173/135
f 68/172/134 69/173/135 70/174/136
f 70/174/136 69/173/135 71/175/137
f 70/174/136 71/175/137 72/176/138
f 72/176/138 71/175/137 73/177/139
f 72/176/138 73/177/139 74/178/140
f 74/178/140 73/177/139 125/179/141
f 75/180/115 55/181/114 76/182/28
f 76/182/28 55/181/114 77/183/112
f 76/182/28 77/183/112 78/184/26
f 78/184/26 77/183/112 79/185/110
f 78/184/26 79/185/110 80/186/25
f 80/186/25 79/185/110 81/187/108
f 80/186/25 81/187/108 82/188/23
f 82/188/23 81/187/108 51/189/106
f 82/188/23 51/189/106 83/190/21
f 83/190/21 51/189/106 84/191/104
f 83/190/21 84/191/104 85/192/20
f 85/192/20 84/191/104 86/193/102
f 85/192/20 86/193/102 6/194/18
f 6/194/18 86/193/102 87/195/100
f 6/194/18 87/195/100 4/196/16
f 4/196/16 87/195/100 88/197/98
f 4/196/16 88/197/98 3/198/15
f 3/198/15 88/197/98 89/199/96
f 3/198/15 89/199/96 90/200/13
f 90/200/13 89/199/96 91/201/94
f 90/200/13 91/201/94 92/202/11
f 92/202/11 91/201/94 48/203/92
f 92/202/11 48/203/92 93/204/1
f 93/204/1 48/203/92 46/205/90
f 93/204/1 46/205/90 94/206/2
f 94/206/2 46/205/90 45/207/89
f 94/206/2 45/207/89 95/208/4
f 95/208/4 45/207/89 47/209/91
f 95/208/4 47/209/91 96/210/6
f 96/210/6 47/209/91 49/211/93
f 96/210/6 49/211/93 97/212/8
f 97/212/8 49/211/93 98/213/95
f 97/212/8 98/213/95 99/214/9
f 99/214/9 98/213/95 50/215/97
f 99/214/9 50/215/97 100/216/87
f 100/216/87 50/215/97 101/217/99
f 100/216/87 101/217/99 102/218/86
f 102/218/86 101/217/99 103/219/101
f 102/218/86 103/219/101 104/220/84
f 104/220/84 103/219/101 105/221/103
f 104/220/84 105/221/103 106/222/82
f 106/222/82 105/221/103 107/223/105
f 106/222/82 107/223/105 26/224/81
f 26/224/81 107/223/105 52/225/107
f 26/224/81 52/225/107 108/226/79
f 108/226/79 52/225/107 53/227/109
f 108/226/79 53/227/109 109/228/77
f 109/228/77 53/227/109 110/229/111
f 109/228/77 110/229/111 111/230/75
f 111/230/75 110/229/111 54/231/113
f 111/230/75 54/231/113 112/232/74
f 112/232/74 54/231/113 113/233/116
f 112/232/74 113/233/116 114/234/72
f 114/234/72 113/233/116 57/235/118
f 114/234/72 57/235/118 115/236/70
f 115/236/70 57/235/118 116/237/120
f 115/236/70 116/237/120 117/238/69
f 117/238/69 116/237/120 59/239/122
f 117/238/69 59/239/122 118/240/67
f 118/240/67 59/239/122 119/241/124
f 118/240/67 119/241/124 120/242/65
f 120/242/65 119/241/124 62/243/126
f 120/242/65 62/243/126 121/244/64
f 121/244/64 62/243/126 64/245/128
f 121/244/64 64/245/128 20/246/62
f 20/246/62 64/245/128 65/247/130
f 20/246/62 65/247/130 18/248/60
f 18/248/60 65/247/130 67/249/132
f 18/248/60 67/249/132 17/250/59
f 17/250/59 67/249/132 68/251/134
f 17/250/59 68/251/134 15/252/57
f 15/252/57 68/251/134 70/253/136
f 15/252/57 70/253/136 122/254/55
f 122/254/55 70/253/136 72/255/138
f 122/254/55 72/255/138 123/256/53
f 123/256/53 72/255/138 74/257/140
f 123/256/53 74/257/140 124/258/52
f 124/258/52 74/257/140 125/259/141
f 124/258/52 125/259/141 126/260/50
f 126/260/50 125/259/141 73/261/139
f 126/260/50 73/261/139 127/262/48
f 127/262/48 73/261/139 71/263/137
f 127/262/48 71/263/137 128/264/47
f 128/264/47 71/263/137 69/265/135
f 128/264/47 69/265/135 129/266/45
f 129/266/45 69/265/135 130/267/133
f 129/266/45 130/267/133 131/268/43
f 131/268/43 130/267/133 66/269/131
f 131/268/43 66/269/131 132/270/42
f 132/270/42 66/269/131 133/271/129
f 132/270/42 133/271/129 134/272/40
f 134/272/40 133/271/129 63/273/127
f 134/272/40 63/273/127 135/274/38
f 135/274/38 63/273/127 61/275/125
f 135/274/38 61/275/125 136/276/37
f 136/276/37 61/275/125 60/277/123
f 136/276/37 60/277/123 137/278/35
f 137/278/35 60/277/123 58/279/121
f 137/278/35 58/279/121 138/280/33
f 138/280/33 58/279/121 139/281/119
f 138/280/33 139/281/119 140/282/31
f 140/282/31 139/281/119 56/283/117
f 140/282/31 56/283/117 141/284/30
f 141/284/30 56/283/117 75/285/115
f 141/284/30 75/285/115 76/286/28
