# Blender v2.82 (sub 7) OBJ File: ''
# www.blender.org
mtllib Fluid.mtl
o chamber\Solid
v 20.000000 -29.999994 -30.000006
v -20.000000 -29.999994 -30.000006
v 20.000000 29.999994 30.000006
v -20.000000 -30.000006 29.999994
v -20.000000 29.999994 30.000006
v -20.000000 30.000006 -29.999994
v 20.000000 30.000006 -29.999994
v 20.000000 -30.000006 29.999994
vt 0.030000 0.020000
vt -0.030000 0.020000
vt 0.030000 -0.020000
vt -0.030000 -0.020000
vt 0.030000 0.020000
vt -0.030000 0.020000
vt 0.030000 -0.020000
vt -0.030000 -0.020000
vt 0.030000 0.020000
vt -0.030000 0.020000
vt 0.030000 -0.020000
vt -0.030000 -0.020000
vt -0.030000 0.030000
vt 0.030000 0.030000
vt -0.030000 -0.030000
vt 0.030000 -0.030000
vt 0.030000 0.020000
vt -0.030000 0.020000
vt 0.030000 -0.020000
vt -0.030000 -0.020000
vt -0.030000 -0.030000
vt 0.030000 -0.030000
vt -0.030000 0.030000
vt 0.030000 0.030000
vn 0.5774 -0.5774 -0.5774
vn 0.5774 -0.5774 0.5774
vn -0.5774 -0.5774 -0.5774
vn -0.5774 -0.5774 0.5774
vn 0.5774 0.5774 0.5774
vn -0.5774 0.5774 0.5774
vn 0.5774 0.5774 -0.5774
vn -0.5774 0.5774 -0.5774
usemtl c_0
s 1
f 1/1/1 8/2/2 2/3/3
f 2/3/3 8/2/2 4/4/4
f 8/5/2 3/6/5 4/7/4
f 4/7/4 3/6/5 5/8/6
f 3/9/5 7/10/7 5/11/6
f 5/11/6 7/10/7 6/12/8
f 4/13/4 5/14/6 2/15/3
f 2/15/3 5/14/6 6/16/8
f 7/17/7 1/18/1 6/19/8
f 6/19/8 1/18/1 2/20/3
f 1/21/1 7/22/7 8/23/2
f 8/23/2 7/22/7 3/24/5
