#
# Object file
# Created by SpaceClaim
#

mtllib Walls.mtl

# wall\Solid
v -39.9999991059303 50.0000007450581 -50.0000007450581
v -39.9999991059303 50.0000007450581 50.0000007450581
v 39.9999991059303 50.0000007450581 50.0000007450581
v 39.9999991059303 50.0000007450581 -50.0000007450581
v -19.9999995529652 50.0000007450581 29.9999993294477
v -19.9999995529652 50.0000007450581 -29.9999993294477
v 19.9999995529652 50.0000007450581 -29.9999993294477
v 19.9999995529652 50.0000007450581 29.9999993294477
v -19.9999995529652 -29.9999993294477 29.9999993294477
v 19.9999995529652 -29.9999993294477 29.9999993294477
v 19.9999995529652 -29.9999993294477 -29.9999993294477
v -19.9999995529652 -29.9999993294477 -29.9999993294477
v 39.9999991059303 -50.0000007450581 50.0000007450581
v -39.9999991059303 -50.0000007450581 50.0000007450581
v -39.9999991059303 -50.0000007450581 -50.0000007450581
v 39.9999991059303 -50.0000007450581 -50.0000007450581
v -19.9999995529652 50.0000007450581 -29.9999993294477
v -19.9999995529652 -29.9999993294477 -29.9999993294477
v 19.9999995529652 -29.9999993294477 -29.9999993294477
v 19.9999995529652 50.0000007450581 -29.9999993294477
v -39.9999991059303 -50.0000007450581 -50.0000007450581
v -39.9999991059303 50.0000007450581 -50.0000007450581
v 39.9999991059303 50.0000007450581 -50.0000007450581
v 39.9999991059303 -50.0000007450581 -50.0000007450581
v 39.9999991059303 50.0000007450581 50.0000007450581
v 39.9999991059303 -50.0000007450581 50.0000007450581
v 39.9999991059303 -50.0000007450581 -50.0000007450581
v 39.9999991059303 50.0000007450581 -50.0000007450581
v -39.9999991059303 -50.0000007450581 50.0000007450581
v -39.9999991059303 50.0000007450581 50.0000007450581
v -39.9999991059303 50.0000007450581 -50.0000007450581
v -39.9999991059303 -50.0000007450581 -50.0000007450581
v 39.9999991059303 -50.0000007450581 50.0000007450581
v 39.9999991059303 50.0000007450581 50.0000007450581
v -39.9999991059303 50.0000007450581 50.0000007450581
v -39.9999991059303 -50.0000007450581 50.0000007450581
v -19.9999995529652 -29.9999993294477 29.9999993294477
v -19.9999995529652 50.0000007450581 29.9999993294477
v 19.9999995529652 50.0000007450581 29.9999993294477
v 19.9999995529652 -29.9999993294477 29.9999993294477
v 19.9999995529652 50.0000007450581 -29.9999993294477
v 19.9999995529652 -29.9999993294477 -29.9999993294477
v 19.9999995529652 -29.9999993294477 29.9999993294477
v 19.9999995529652 50.0000007450581 29.9999993294477
v -19.9999995529652 50.0000007450581 -29.9999993294477
v -19.9999995529652 50.0000007450581 29.9999993294477
v -19.9999995529652 -29.9999993294477 29.9999993294477
v -19.9999995529652 -29.9999993294477 -29.9999993294477
vn 0 1 0
vn 0 1 0
vn 0 1 0
vn 0 1 0
vn 0 1 0
vn 0 1 0
vn 0 1 0
vn 0 1 0
vn 0 1 0
vn 0 1 0
vn 0 1 0
vn 0 1 0
vn 0 -1 0
vn 0 -1 0
vn 0 -1 0
vn 0 -1 0
vn 0 0 1
vn 0 0 1
vn 0 0 1
vn 0 0 1
vn 0 0 -1
vn 0 0 -1
vn 0 0 -1
vn 0 0 -1
vn 1 -8.67361737988404E-17 0
vn 1 -8.67361737988404E-17 0
vn 1 -8.67361737988404E-17 0
vn 1 -8.67361737988404E-17 0
vn -1 0 0
vn -1 0 0
vn -1 0 0
vn -1 0 0
vn 0 0 1
vn 0 0 1
vn 0 0 1
vn 0 0 1
vn 0 0 -1
vn 0 0 -1
vn 0 0 -1
vn 0 0 -1
vn -1 0 0
vn -1 0 0
vn -1 0 0
vn -1 0 0
vn 1 0 0
vn 1 0 0
vn 1 0 0
vn 1 0 0
vt -0.0500000007450581 -0.0599999986588955
vt 0.0500000007450581 -0.0599999986588955
vt 0.0500000007450581 0.0199999995529652
vt -0.0500000007450581 0.0199999995529652
vt 0.0299999993294477 -0.0399999991059303
vt -0.0299999993294477 -0.0399999991059303
vt -0.0299999993294477 0
vt 0.0299999993294477 0
vt 0.0199999995529652 -0.0700000002980232
vt -0.0199999995529652 -0.0700000002980232
vt -0.0199999995529652 -0.00999999977648258
vt 0.0199999995529652 -0.00999999977648258
vt -0.0399999991059303 -0.0900000035762787
vt 0.0399999991059303 -0.0900000035762787
vt 0.0399999991059303 0.00999999977648258
vt -0.0399999991059303 0.00999999977648258
vt 0.0399999991059303 -0.0500000007450581
vt -0.0399999991059303 -0.0500000007450581
vt -0.0399999991059303 -0.00999999977648258
vt 0.0399999991059303 -0.00999999977648258
vt -0.0599999986588955 -0.0700000002980232
vt 0.0399999991059303 -0.0700000002980232
vt 0.0399999991059303 0.00999999977648258
vt -0.0599999986588955 0.00999999977648258
vt 0.0399999991059303 0.0199999995529652
vt -0.0599999986588955 0.0199999995529652
vt -0.0599999986588955 -0.0799999982118607
vt 0.0399999991059303 -0.0799999982118607
vt 0.0599999986588955 0.0199999995529652
vt -0.0399999991059303 0.0199999995529652
vt -0.0399999991059303 -0.0799999982118607
vt 0.0599999986588955 -0.0799999982118607
vt 0.0500000007450581 0.0399999991059303
vt -0.0500000007450581 0.0399999991059303
vt -0.0500000007450581 -0.0399999991059303
vt 0.0500000007450581 -0.0399999991059303
vt 0.0299999993294477 -0.0199999995529652
vt -0.0500000007450581 -0.0199999995529652
vt -0.0500000007450581 0.0199999995529652
vt 0.0299999993294477 0.0199999995529652
vt 0.0299999993294477 0.00999999977648258
vt 0.0299999993294477 -0.0700000002980232
vt -0.0299999993294477 -0.0700000002980232
vt -0.0299999993294477 0.00999999977648258
vt -0.0500000007450581 -0.0299999993294477
vt -0.0500000007450581 0.0299999993294477
vt 0.0299999993294477 0.0299999993294477
vt 0.0299999993294477 -0.0299999993294477

o wall\Solid
g wall\Solid
s off

usemtl c_0

# face 0
f 8/8/8 5/5/5 2/2/2
f 2/2/2 5/5/5 6/6/6
f 2/2/2 6/6/6 1/1/1
f 1/1/1 6/6/6 7/7/7
f 1/1/1 7/7/7 4/4/4
f 4/4/4 7/7/7 8/8/8
f 4/4/4 8/8/8 3/3/3
f 3/3/3 8/8/8 2/2/2

# face 1
f 9/9/9 10/10/10 12/12/12
f 12/12/12 10/10/10 11/11/11

# face 2
f 13/13/13 14/14/14 16/16/16
f 16/16/16 14/14/14 15/15/15

# face 3
f 17/17/17 18/18/18 20/20/20
f 20/20/20 18/18/18 19/19/19

# face 4
f 21/21/21 22/22/22 24/24/24
f 24/24/24 22/22/22 23/23/23

# face 5
f 25/25/25 26/26/26 28/28/28
f 28/28/28 26/26/26 27/27/27

# face 6
f 29/29/29 30/30/30 32/32/32
f 32/32/32 30/30/30 31/31/31

# face 7
f 33/33/33 34/34/34 36/36/36
f 36/36/36 34/34/34 35/35/35

# face 8
f 37/37/37 38/38/38 40/40/40
f 40/40/40 38/38/38 39/39/39

# face 9
f 42/42/42 43/43/43 41/41/41
f 41/41/41 43/43/43 44/44/44

# face 10
f 46/46/46 47/47/47 45/45/45
f 45/45/45 47/47/47 48/48/48
